PathFileType	4	(X/Y/Z)	/Users/itak/Documents/Research/Walk-IL/dataset/trc/00427_00167.trc
DataRate	CameraRate	NumFrames	NumMarkers	Units	OrigDataRate	OrigDataStartFrame	OrigNumFrames
100.000000	100.000000	4	53	mm	100.000000	244	651
Frame#	Time	RPSI			LPSI			L3			STRN			T10			C7			CLAV			RBAK			LBAK			LSHO			LUPA			LAEL			LAOL			LWTS			LWPS			LFRA			LIFD			LHPS			LHTS			RSHO			RUPA			RAEL			RAOL			RWTS			RWPS			RFRA			RIFD			RHTS			RHPS			RBHD			LFHD			RFHD			LBHD			LHIP			RHIP			RASI			LASI			LKNE			LTHI			LANK			LTIP			LTOE			LMT1			LMT5			LHEE			RKNE			RTHI			RANK			RTIP			RTOE			RMT1			RMT5			RHEE			
		X1	Y1	Z1	X2	Y2	Z2	X3	Y3	Z3	X4	Y4	Z4	X5	Y5	Z5	X6	Y6	Z6	X7	Y7	Z7	X8	Y8	Z8	X9	Y9	Z9	X10	Y10	Z10	X11	Y11	Z11	X12	Y12	Z12	X13	Y13	Z13	X14	Y14	Z14	X15	Y15	Z15	X16	Y16	Z16	X17	Y17	Z17	X18	Y18	Z18	X19	Y19	Z19	X20	Y20	Z20	X21	Y21	Z21	X22	Y22	Z22	X23	Y23	Z23	X24	Y24	Z24	X25	Y25	Z25	X26	Y26	Z26	X27	Y27	Z27	X28	Y28	Z28	X29	Y29	Z29	X30	Y30	Z30	X31	Y31	Z31	X32	Y32	Z32	X33	Y33	Z33	X34	Y34	Z34	X35	Y35	Z35	X36	Y36	Z36	X37	Y37	Z37	X38	Y38	Z38	X39	Y39	Z39	X40	Y40	Z40	X41	Y41	Z41	X42	Y42	Z42	X43	Y43	Z43	X44	Y44	Z44	X45	Y45	Z45	X46	Y46	Z46	X47	Y47	Z47	X48	Y48	Z48	X49	Y49	Z49	X50	Y50	Z50	X51	Y51	Z51	X52	Y52	Z52	X53	Y53	Z53	

245	2.44	-679.4962768554688	957.2164916992188	-103.7089767456055	-602.646728515625	945.2798461914062	-223.6960296630859	-644.33642578125	1058.563232421875	-136.6891174316406	-400.2943725585938	1239.295654296875	-7.499858379364014	-656.9580078125	1183.462890625	-141.9627380371094	-598.27001953125	1448.108032226562	-89.14287567138672	-429.0568542480469	1354.34130859375	-22.23273277282715	-697.6290893554688	1329.10986328125	-32.19833755493164	-579.4861450195312	1405.167114257812	-197.8149261474609	-449.9339294433594	1421.771240234375	-212.4193115234375	-394.8340148925781	1311.706176757812	-303.602294921875	-318.0741882324219	1112.70751953125	-316.9182739257812	-411.7584228515625	1065.2802734375	-309.1371154785156	-212.4860229492188	986.2515258789062	-173.8697967529297	-200.9153137207031	945.6976928710938	-234.3673400878906	-264.8877868652344	1047.103271484375	-286.1484680175781	-130.5250549316406	852.9120483398438	-110.7951965332031	-160.829833984375	884.693115234375	-200.2341156005859	-155.4584808349609	923.9910888671875	-141.3904876708984	-601.3263549804688	1407.799438476562	86.95277404785156	-644.4457397460938	1347.208740234375	151.5574188232422	-636.6514892578125	1067.385498046875	233.9512786865234	-668.4059448242188	1037.416870117188	182.0377655029297	-480.4962158203125	902.89990234375	254.7508697509766	-557.8403930664062	869.63720703125	282.7715759277344	-623.1896362304688	1011.897399902344	250.9815979003906	-439.8839721679688	753.7846069335938	293.7670593261719	-445.6275939941406	815.0054321289062	292.9627075195312	-517.6407470703125	793.9041137695312	305.1530456542969	-579.8878784179688	1631.8193359375	15.51971530914307	-380.1029052734375	1659.785278320312	-30.82254791259766	-456.7251892089844	1656.6572265625	74.97554016113281	-487.6270751953125	1640.5966796875	-137.2954864501953	-413.263671875	845.9744873046875	-240.0844421386719	-653.2076416015625	855.0577392578125	79.8271484375	-533.666748046875	898.187744140625	82.03443145751953	-390.5649108886719	893.748046875	-125.2312164306641	-306.8342895507812	447.5524291992188	-154.1451263427734	-297.3872680664062	604.779541015625	-165.9879302978516	-591.2463989257812	170.8540802001953	-306.9530334472656	-399.6820068359375	326.6370544433594	-216.4422149658203	-455.385009765625	49.4815673828125	-167.2649841308594	-521.5291748046875	90.54414367675781	-164.2460479736328	-479.4032592773438	88.13812255859375	-266.3085021972656	-651.8466796875	202.6601715087891	-281.3526000976562	-599.1932373046875	456.9719543457031	40.47126007080078	-608.87939453125	717.9629516601562	100.5354232788086	-638.772705078125	45.45966720581055	-28.46549224853516	-605.0712280273438	308.3381652832031	31.25316047668457	-430.7796936035156	46.01649475097656	40.34663391113281	-467.1154174804688	48.95108413696289	-24.38621139526367	-535.3259887695312	50.61099624633789	57.93150329589844	-674.2615966796875	34.81968688964844	-101.5443496704102	
246	2.45	-673.4708251953125	956.843017578125	-99.72133636474609	-596.20068359375	944.9293212890625	-219.4595031738281	-638.5990600585938	1058.052001953125	-132.2610168457031	-394.80859375	1239.634643554688	-3.429450273513794	-651.37890625	1182.957153320312	-137.4921875	-592.9358520507812	1447.913940429688	-85.71614837646484	-423.5879211425781	1354.578247070312	-18.75255393981934	-692.1925048828125	1329.100952148438	-28.22607231140137	-574.4885864257812	1404.502319335938	-194.1773071289062	-445.1580810546875	1421.260986328125	-209.2631988525391	-390.4272155761719	1311.205810546875	-300.6543579101562	-312.8119506835938	1113.086059570312	-314.3213195800781	-405.93017578125	1064.575439453125	-305.4982604980469	-204.5155639648438	990.30126953125	-170.1838531494141	-192.8880004882812	948.947021484375	-230.1060791015625	-258.523193359375	1048.700805664062	-283.0005798339844	-120.2384796142578	859.0674438476562	-105.7342758178711	-151.6172027587891	889.1044921875	-195.4069671630859	-146.3749847412109	929.380859375	-137.2005310058594	-595.8297119140625	1408.552368164062	90.44025421142578	-638.8653564453125	1348.25048828125	155.3658294677734	-630.4620361328125	1068.987915039062	239.1320190429688	-662.0448608398438	1038.262329101562	187.4924011230469	-471.4742431640625	907.1023559570312	260.0654907226562	-548.0076293945312	873.1318969726562	289.4329223632812	-616.08984375	1013.834167480469	256.5236206054688	-428.5984497070312	759.0202026367188	300.4825439453125	-435.0790100097656	820.1407470703125	298.9580078125	-506.6439208984375	798.3347778320312	312.4454650878906	-573.3045043945312	1632.35498046875	18.40792274475098	-373.6356506347656	1659.35302734375	-28.97447204589844	-449.7816772460938	1656.923217773438	77.20375823974609	-481.7095031738281	1640.22802734375	-134.8570251464844	-405.9539184570312	846.7347412109375	-234.7418365478516	-648.1831665039062	854.4612426757812	83.66244506835938	-528.5907592773438	897.4417724609375	86.57301330566406	-384.7409362792969	894.513427734375	-119.8619918823242	-294.7256469726562	450.2968139648438	-143.8670959472656	-287.3506469726562	607.7388916015625	-157.3220825195312	-569.3507690429688	161.6634826660156	-291.7085266113281	-383.6779174804688	325.6069030761719	-204.3486633300781	-426.7097778320312	49.19915771484375	-151.0704803466797	-495.0098876953125	86.67738342285156	-148.3208312988281	-453.2599792480469	85.36455535888672	-250.5968627929688	-631.408203125	190.7424468994141	-266.2600402832031	-596.4098510742188	456.4695739746094	42.4593505859375	-604.408447265625	717.1778564453125	103.7670822143555	-638.683349609375	45.58454132080078	-28.48589324951172	-603.2342529296875	307.9044494628906	32.43603134155273	-430.7523498535156	45.98952102661133	40.38335037231445	-467.0518493652344	48.89471435546875	-24.42431640625	-535.2947387695312	50.62677383422852	57.88237762451172	-674.2144165039062	34.9948616027832	-101.5888595581055	
247	2.46	-667.43798828125	956.4476318359375	-95.73776245117188	-589.7926635742188	944.5485229492188	-215.2477264404297	-632.82568359375	1057.491577148438	-127.8958892822266	-389.3013305664062	1239.818359375	0.6683893799781799	-645.7550659179688	1182.397338867188	-133.1199188232422	-587.541015625	1447.640869140625	-82.32740020751953	-418.0817260742188	1354.652587890625	-15.26152229309082	-686.7386474609375	1329.023559570312	-24.335693359375	-569.3655395507812	1403.755859375	-190.5669097900391	-440.2293090820312	1420.605102539062	-206.0775604248047	-385.8815002441406	1310.561889648438	-297.6917724609375	-307.5196838378906	1113.26806640625	-311.7815551757812	-400.1256103515625	1063.782958984375	-302.0637817382812	-196.9314575195312	993.7678833007812	-166.6893920898438	-185.1488800048828	951.733154296875	-226.1148376464844	-252.246826171875	1049.989990234375	-279.9755554199219	-110.6594390869141	864.4710083007812	-100.9611053466797	-142.8520202636719	892.94677734375	-190.8585968017578	-137.8342895507812	934.063720703125	-133.2184295654297	-590.2967529296875	1409.164306640625	93.88565063476562	-633.2420043945312	1349.152954101562	159.1376953125	-624.2631225585938	1070.42724609375	244.2417449951172	-655.7111206054688	1038.988647460938	192.9065246582031	-462.6056823730469	911.1197509765625	265.1733093261719	-538.2914428710938	876.3724975585938	295.8336181640625	-609.0379028320312	1015.607299804688	261.9697570800781	-417.3108825683594	764.0819091796875	306.5542907714844	-424.6066284179688	825.0643310546875	304.4786682128906	-495.6970520019531	802.4590454101562	319.1849670410156	-566.7265625	1632.7939453125	21.24297523498535	-367.1634521484375	1658.81689453125	-27.12049674987793	-442.8407897949219	1657.090576171875	79.41638946533203	-475.7760009765625	1639.742431640625	-132.434326171875	-398.7964172363281	847.3640747070312	-229.5324096679688	-643.1484375	853.8489990234375	87.48759460449219	-523.4823608398438	896.6434326171875	91.04152679443359	-378.8224792480469	895.1705322265625	-114.6111221313477	-282.937255859375	452.8984680175781	-133.7595825195312	-277.7017822265625	610.4979248046875	-148.9434967041016	-546.792724609375	152.1669158935547	-276.3559265136719	-367.5700378417969	324.3742370605469	-192.2568969726562	-398.18017578125	49.05697250366211	-134.4730224609375	-468.4000854492188	82.96401214599609	-132.1176910400391	-426.8181762695312	82.53498840332031	-234.5194549560547	-610.1148681640625	178.5475463867188	-251.1664581298828	-593.7158203125	455.9566650390625	44.3950309753418	-599.992919921875	716.3688354492188	106.9510726928711	-638.5983276367188	45.69985198974609	-28.51583099365234	-601.4766845703125	307.4702453613281	33.60072708129883	-430.7456665039062	45.97224807739258	40.41921234130859	-466.9941711425781	48.84353637695312	-24.46061706542969	-535.2825317382812	50.63930892944336	57.83933639526367	-674.184814453125	35.17021179199219	-101.6313095092773	
248	2.47	-661.394287109375	956.0248413085938	-91.765380859375	-583.3988647460938	944.1368408203125	-211.0605163574219	-627.0093383789062	1056.88916015625	-123.5855255126953	-383.7760009765625	1239.849975585938	4.778846740722656	-640.0872192382812	1181.786499023438	-128.8399658203125	-582.07666015625	1447.292358398438	-78.96670532226562	-412.5325317382812	1354.572021484375	-11.75893020629883	-681.258544921875	1328.878173828125	-20.51909255981445	-564.1160888671875	1402.933349609375	-186.9764556884766	-435.1449279785156	1419.812377929688	-202.8592987060547	-381.18359375	1309.787109375	-294.7037353515625	-302.1954040527344	1113.255737304688	-309.2865295410156	-394.3553161621094	1062.911254882812	-298.8126831054688	-189.732177734375	996.6110229492188	-163.380615234375	-177.6977996826172	954.0189208984375	-222.396484375	-246.0642852783203	1050.951538085938	-277.0647583007812	-101.7489776611328	869.0875854492188	-96.46462249755859	-134.5197448730469	896.1774291992188	-186.5905609130859	-129.8031005859375	938.0084838867188	-129.4440155029297	-584.7249755859375	1409.634887695312	97.30126190185547	-627.5870971679688	1349.913696289062	162.8716278076172	-618.0718994140625	1071.691650390625	249.2648620605469	-649.4125366210938	1039.582641601562	198.2553100585938	-453.9086608886719	914.94287109375	270.0917053222656	-528.7076416015625	879.3432006835938	301.9562683105469	-602.0476684570312	1017.2041015625	267.3017883300781	-406.0471496582031	768.9603881835938	312.0403747558594	-414.2354125976562	829.7696533203125	309.5718994140625	-484.8173217773438	806.2647705078125	325.388427734375	-560.1580200195312	1633.134521484375	24.02825355529785	-360.692626953125	1658.18310546875	-25.24090385437012	-435.9099426269531	1657.158813476562	81.62318420410156	-469.8235473632812	1639.143188476562	-130.0190582275391	-391.7391662597656	847.8699340820312	-224.4414978027344	-638.12451171875	853.220458984375	91.29880523681641	-518.3621826171875	895.80029296875	95.45748901367188	-372.8588562011719	895.7052612304688	-109.4657897949219	-271.4698791503906	455.3329162597656	-123.8241958618164	-268.4299621582031	613.0294189453125	-140.8586578369141	-523.55859375	142.4897918701172	-260.886474609375	-351.3537292480469	322.9741821289062	-180.1593017578125	-369.8380432128906	49.12948989868164	-117.4508666992188	-441.7616882324219	79.48580932617188	-115.6352462768555	-400.1291198730469	79.71158599853516	-218.0548248291016	-587.9916381835938	166.2105712890625	-236.0664825439453	-591.0960693359375	455.4326477050781	46.28865051269531	-595.6361083984375	715.5340576171875	110.0947036743164	-638.5113525390625	45.80489730834961	-28.55911636352539	-599.7833862304688	307.0333557128906	34.75032043457031	-430.7620544433594	45.96183395385742	40.45631408691406	-466.9435729980469	48.80011367797852	-24.49026679992676	-535.286376953125	50.64412307739258	57.80398559570312	-674.17431640625	35.35010528564453	-101.670768737793	
